<svg width="348" height="651" viewBox="0 0 348 651" fill="none" xmlns="http://www.w3.org/2000/svg">
<g clip-path="url(#clip0_243_628)">
<mask id="mask0_243_628" style="mask-type:luminance" maskUnits="userSpaceOnUse" x="0" y="0" width="348" height="651">
<path d="M348 0H0V651H348V0Z" fill="white"/>
</mask>
<g mask="url(#mask0_243_628)">
<path d="M176.42 0.00717002C236.234 0.613816 254.056 39.5634 254.056 73.7103L254.048 75.0367C253.563 113.98 231.86 158.454 207.468 182.127C223.079 182.992 241.408 183.739 256.099 183.553C288.366 183.145 296.944 184.776 313.69 176.211C330.421 167.653 334.105 152.58 334.113 152.553L341.873 177.434C341.873 177.434 347.158 192.634 348 202.724C348.409 207.618 345.803 211.017 343.507 214.961C341.862 217.786 340.315 219 337.789 221.079C334.917 223.441 333.051 224.537 329.62 225.974C325.98 227.498 319.817 228.421 319.817 228.421C319.817 228.421 323.194 226.909 325.127 225.566C327.443 223.955 328.577 222.791 330.437 220.671C332.476 218.344 333.496 216.887 334.93 214.145C336.122 211.864 336.972 210.066 337.38 208.026C337.789 205.987 338.197 203.947 331.662 201.5C325.127 199.053 321.26 199.489 314.507 199.053C308.858 198.687 300.015 199.052 300.002 199.053C300.002 199.053 271.721 200.316 253.936 203.539C237.251 206.564 228.009 209.154 211.936 214.553C205.796 216.615 198.413 219.549 191.799 222.308C191.974 222.303 192.039 222.303 191.973 222.303C191.154 222.307 181.358 240.815 183.734 252.559C185.665 262.1 196.812 274.011 196.874 274.078C196.866 274.147 189.066 338.711 188.82 380.282C188.555 425.337 196.855 495.347 196.874 495.511C196.876 495.573 197.723 520.937 196.874 537.16C194.508 582.404 174.021 650.88 173.985 651C173.952 650.882 154.225 582.344 151.945 537.16C151.125 520.933 151.943 495.565 151.945 495.511C151.962 495.365 160.264 425.344 159.998 380.282C159.752 338.724 151.958 274.188 151.945 274.078C151.985 274.029 162.068 261.904 163.812 252.559C165.88 241.481 158.209 224.38 156.648 222.477C149.931 219.668 142.372 216.657 136.106 214.553C120.033 209.154 110.791 206.564 94.1055 203.539C76.3425 200.32 48.1089 199.056 48.0407 199.053C48.0407 199.053 39.1886 198.687 33.5359 199.053C26.7828 199.489 22.916 199.053 16.381 201.5C9.84577 203.947 10.2542 205.987 10.6627 208.026C11.0711 210.066 11.9207 211.864 13.1134 214.145C14.5468 216.887 15.5664 218.344 17.6063 220.671C19.465 222.791 20.6004 223.955 22.9162 225.566C24.849 226.909 28.2261 228.421 28.2261 228.421C28.2261 228.421 22.0623 227.498 18.4232 225.974C14.9924 224.537 13.1255 223.441 10.2542 221.079C7.7283 219 6.18103 217.786 4.53593 214.961C2.23996 211.017 -0.36547 207.618 0.0429688 202.724C0.884916 192.634 6.16973 177.434 6.16973 177.434L13.9303 152.553C13.9395 152.59 17.6274 167.655 34.3528 176.211C51.0991 184.776 59.6769 183.145 91.9448 183.553C107.471 183.749 127.063 182.905 143.214 181.977C119.026 157.756 97.6933 112.221 97.2195 74.9706L97.2113 73.7103C97.2113 39.2945 114.045 8.03774e-05 174.998 0L176.42 0.00717002ZM174.998 18.7632C148.857 18.7632 135.198 26.9827 127.661 35.9848C119.599 45.6119 116 59.1753 116 73.7103C116 96.1073 125.493 124.051 139.465 146.634C146.364 157.786 153.838 166.772 160.839 172.739C163.345 174.874 165.558 176.43 167.465 177.554V157.141C166.4 148.431 165.392 141.141 164.325 138.745C161.075 131.457 144.048 126.901 144.048 126.901C144.048 126.901 157.907 122.062 164.303 115.675C170.692 109.295 175.533 84.4946 175.544 84.4342C175.547 84.453 179.33 109.314 185.379 115.694C191.937 122.612 207.034 126.941 207.099 126.96C207.02 126.98 189.439 131.5 185.402 138.766C184.003 141.283 183.045 149.217 182.169 158.522V177.984C184.295 176.856 186.8 175.221 189.663 172.885C196.745 167.104 204.325 158.376 211.326 147.452C225.478 125.371 235.268 97.5023 235.268 73.7103C235.268 59.45 231.483 45.8869 223.13 36.1719C215.244 26.9995 201.151 18.7632 174.998 18.7632Z" fill="#5E0C0C"/>
</g>
</g>
<defs>
<clipPath id="clip0_243_628">
<rect width="348" height="651" fill="white"/>
</clipPath>
</defs>
</svg>
