<svg width="426" height="798" viewBox="0 0 426 798" fill="none" xmlns="http://www.w3.org/2000/svg">
<g clip-path="url(#clip0_12_64)">
<path d="M215.962 0.00878906C289.183 0.75242 311 48.4971 311 90.3545L310.99 91.9805C310.396 139.718 283.829 194.234 253.969 223.252C273.079 224.313 295.517 225.228 313.5 225C353 224.5 363.5 226.5 384 216C404.481 205.51 408.991 187.034 409 187L418.5 217.5C418.5 217.5 424.969 236.132 426 248.5C426.5 254.5 423.31 258.666 420.5 263.5C418.486 266.963 416.592 268.452 413.5 271C409.985 273.896 407.7 275.239 403.5 277C399.045 278.868 391.5 280 391.5 280C391.5 280 395.634 278.147 398 276.5C400.835 274.526 402.224 273.099 404.5 270.5C406.997 267.647 408.245 265.861 410 262.5C411.46 259.704 412.5 257.5 413 255C413.5 252.5 414 250 406 247C398 244 393.267 244.535 385 244C378.085 243.552 367.26 243.999 367.244 244C367.244 244 332.624 245.549 310.853 249.5C290.428 253.207 279.115 256.382 259.439 263C251.923 265.528 242.885 269.124 234.788 272.507C235.002 272.501 235.082 272.5 235.001 272.5C233.999 272.505 222.007 295.192 224.916 309.589C227.279 321.284 240.925 335.885 241.001 335.966C240.991 336.051 231.443 415.194 231.142 466.152C230.817 521.381 240.977 607.199 241.001 607.4C241.003 607.476 242.04 638.568 241.001 658.454C238.104 713.914 213.026 797.853 212.982 798C212.941 797.855 188.793 713.841 186.001 658.454C184.998 638.563 185.999 607.467 186.001 607.4C186.022 607.221 196.185 521.389 195.859 466.152C195.559 415.21 186.017 336.101 186.001 335.966C186.051 335.906 198.394 321.044 200.529 309.589C203.06 296.009 193.67 275.046 191.759 272.714C183.536 269.271 174.283 265.58 166.613 263C146.937 256.382 135.624 253.207 115.198 249.5C93.4537 245.553 58.8918 244.004 58.8084 244C58.8084 244 47.9722 243.552 41.0525 244C32.7857 244.535 28.0523 244 20.0525 247C12.0525 250 12.5525 252.5 13.0525 255C13.5525 257.5 14.5925 259.704 16.0525 262.5C17.8072 265.861 19.0554 267.647 21.5525 270.5C23.8278 273.099 25.2177 274.526 28.0525 276.5C30.4185 278.147 34.5525 280 34.5525 280C34.5525 280 27.0072 278.868 22.5525 277C18.3527 275.239 16.0673 273.896 12.5525 271C9.46043 268.452 7.56635 266.963 5.55252 263.5C2.74194 258.666 -0.447464 254.5 0.0525208 248.5C1.08318 236.132 7.55252 217.5 7.55252 217.5L17.0525 187C17.0638 187.046 21.5783 205.513 42.0525 216C62.5523 226.5 73.0527 224.5 112.553 225C131.559 225.241 155.543 224.206 175.314 223.069C145.704 193.378 119.59 137.561 119.01 91.8994L119 90.3545C119 48.1675 139.607 9.85271e-05 214.222 0L215.962 0.00878906ZM214.222 23C182.222 23 165.501 33.0756 156.274 44.1104C146.406 55.9114 142 72.5375 142 90.3545C142 117.809 153.621 152.063 170.724 179.745C179.17 193.415 188.319 204.43 196.889 211.744C199.957 214.362 202.666 216.269 205 217.647V192.624C203.697 181.948 202.463 173.011 201.156 170.075C197.178 161.141 176.335 155.556 176.335 155.556C176.335 155.556 193.3 149.624 201.13 141.795C208.95 133.975 214.876 103.574 214.89 103.5C214.894 103.523 219.525 133.998 226.929 141.819C234.957 150.299 253.438 155.605 253.518 155.628C253.421 155.653 231.899 161.194 226.957 170.1C225.245 173.185 224.072 182.911 223 194.317V218.174C225.602 216.791 228.669 214.787 232.174 211.923C240.843 204.837 250.122 194.138 258.692 180.748C276.016 153.68 288 119.519 288 90.3545C288 72.8742 283.367 56.2484 273.142 44.3398C263.488 33.0961 246.236 23.0001 214.222 23Z" fill="black"/>
</g>
<defs>
<clipPath id="clip0_12_64">
<rect width="426" height="798" fill="white"/>
</clipPath>
</defs>
</svg>
